# xmcd CD database file
#
# Track frame offsets:
#	150
#	17012
#	37867
#	52547
#	69130
#	88072
#	105047
#	120342
#	138790
#	154072
#	167237
#	184247
#	206947
#	229520
#
# Disc length: 3236 seconds
#
# Revision: 0
# Processed by: cddbd v1.5.2PL0 Copyright (c) Steve Scherf et al.
# Submitted via: CDex 1.70beta2
#
DISCID=9e0ca20e
DTITLE=Various Artist - JAPANESE BLUES PARTY
DYEAR=1900
DGENRE=Blues
TTITLE0=Raise Up - KYON and BLACK BOTTOM BRASS BAND
TTITLE1=Drinking Wine Spoodie Woodie - JO JO サワド
TTITLE2=夏だったのかなぁ - バン・バン・バザール
TTITLE3=You Don't Have To Go - JUJIROU
TTITLE4=We～ll Well - ザ・ヒニル・ブラザーズ
TTITLE5=Mama Talk To Your Daughter - ブギーボーイ・イクト
TTITLE6=I Just Want To Make Love To You - ギターウルフ
TTITLE7=１２小節のメリーゴーランド－－－－ブルース - 町田謙介
TTITLE8=金比羅 Boogie - 高徳ブルースオールスターズ
TTITLE9=あついオフロ - 世田谷ジャンボリー
TTITLE10=Baby, I Love You So - DYNAMITE MASTER'S BLUES QUARTET
TTITLE11=Woman - MAKI SHIZUSAWA
TTITLE12=In My Dream - ニシムラ ヒロ
TTITLE13=Just Your Fool - 石川二三夫 ＆ 小出 斉
EXTD=
EXTT0=
EXTT1=
EXTT2=
EXTT3=
EXTT4=
EXTT5=
EXTT6=
EXTT7=
EXTT8=
EXTT9=
EXTT10=
EXTT11=
EXTT12=
EXTT13=
PLAYORDER=
